<svg width="23" height="15" viewBox="0 0 23 15" fill="none" xmlns="http://www.w3.org/2000/svg">
<path fill-rule="evenodd" clip-rule="evenodd" d="M8.95584 0.356658C8.57752 -0.0216621 7.96414 -0.0216621 7.58582 0.356658L1.12749 6.81499C0.74917 7.19331 0.74917 7.80669 1.12749 8.18501L7.58582 14.6433C7.96414 15.0217 8.57752 15.0217 8.95584 14.6433C9.33416 14.265 9.33416 13.6516 8.95584 13.2733L3.18252 7.5L8.95584 1.72668C9.33416 1.34836 9.33416 0.734979 8.95584 0.356658Z" fill="white"/>
<g opacity="0.5">
<path d="M4.15127 6.53125H14.7292C15.9606 6.53125 17.7861 6.89271 19.3317 8.00549C20.9266 9.15385 22.1562 11.0593 22.1562 13.9583C22.1562 14.4934 21.7225 14.9271 21.1875 14.9271C20.6525 14.9271 20.2187 14.4934 20.2187 13.9583C20.2187 11.6907 19.2956 10.367 18.1996 9.57784C17.0541 8.75313 15.6505 8.46875 14.7292 8.46875L4.15127 8.46875L3.18252 7.5L4.15127 6.53125Z" fill="white"/>
<path d="M0.917258 7.12918C0.869892 7.2434 0.84375 7.36865 0.84375 7.5C0.84375 7.37381 0.868254 7.24762 0.917258 7.12918Z" fill="white"/>
</g>
</svg>
