<svg width="16" height="16" viewBox="0 0 16 16" fill="none" xmlns="http://www.w3.org/2000/svg">
<path d="M9.33337 1.33334C9.33337 1.33334 10.8 1.46667 12.6667 3.33334C14.5334 5.2 14.6667 6.66667 14.6667 6.66667" stroke="#F7F5F5" stroke-linecap="round"/>
<path d="M9.47131 3.69043C9.47131 3.69043 10.1313 3.87899 11.1212 4.86894C12.1112 5.85889 12.2997 6.51886 12.2997 6.51886" stroke="#F7F5F5" stroke-linecap="round"/>
<path opacity="0.5" d="M6.69169 3.54411L7.12436 4.3194C7.51483 5.01905 7.35808 5.93688 6.7431 6.55186C6.7431 6.55186 6.7431 6.55186 6.7431 6.55187C6.74298 6.55198 5.99725 7.29793 7.34964 8.65032C8.70137 10.0021 9.44728 9.25767 9.44809 9.25686C9.44812 9.25683 9.4481 9.25685 9.44813 9.25682C10.0631 8.64187 10.9809 8.48513 11.6806 8.87559L12.4558 9.30827C13.5123 9.89788 13.6371 11.3795 12.7085 12.3081C12.1505 12.8661 11.4669 13.3003 10.7112 13.329C9.43914 13.3772 7.27881 13.0552 5.11176 10.8882C2.94471 8.72114 2.62277 6.56081 2.67099 5.28872C2.69964 4.53306 3.13383 3.84949 3.69183 3.29149C4.62046 2.36285 6.10207 2.48762 6.69169 3.54411Z" stroke="#F7F5F5" stroke-linecap="round"/>
</svg>
