<svg width="16" height="16" viewBox="0 0 16 16" fill="none" xmlns="http://www.w3.org/2000/svg">
<g clip-path="url(#clip0_103_9495)">
<path d="M1.33337 9.33333C1.33337 6.81918 1.33337 5.5621 2.11442 4.78105C2.89547 4 4.15255 4 6.66671 4H9.33337C11.8475 4 13.1046 4 13.8857 4.78105C14.6667 5.5621 14.6667 6.81918 14.6667 9.33333C14.6667 11.8475 14.6667 13.1046 13.8857 13.8856C13.1046 14.6667 11.8475 14.6667 9.33337 14.6667H6.66671C4.15255 14.6667 2.89547 14.6667 2.11442 13.8856C1.33337 13.1046 1.33337 11.8475 1.33337 9.33333Z" stroke="#F7F6F6" stroke-width="1.5"/>
<path opacity="0.5" d="M10.6667 3.99999C10.6667 2.74292 10.6667 2.11438 10.2762 1.72385C9.88566 1.33333 9.25712 1.33333 8.00004 1.33333C6.74296 1.33333 6.11442 1.33333 5.7239 1.72385C5.33337 2.11438 5.33337 2.74292 5.33337 3.99999" stroke="#F7F6F6" stroke-width="1.5"/>
<path d="M6.66671 10H4.00004C3.68577 10 3.52864 10 3.43101 10.0976C3.33337 10.1953 3.33337 10.3524 3.33337 10.6667V11.3333C3.33337 11.6476 3.33337 11.8047 3.43101 11.9024C3.52864 12 3.68577 12 4.00004 12H6.66671C6.98098 12 7.13811 12 7.23574 11.9024C7.33337 11.8047 7.33337 11.6476 7.33337 11.3333V10.6667C7.33337 10.3524 7.33337 10.1953 7.23574 10.0976C7.13811 10 6.98098 10 6.66671 10Z" stroke="#F7F6F6" stroke-width="1.5" stroke-linejoin="round"/>
<path opacity="0.5" d="M4 4.33333V10M4 14.3333V12.3333" stroke="#F7F6F6" stroke-width="1.5" stroke-linecap="round"/>
<path opacity="0.5" d="M12 4.33333V14.3333" stroke="#F7F6F6" stroke-width="1.5" stroke-linecap="round"/>
</g>
<defs>
<clipPath id="clip0_103_9495">
<rect width="16" height="16" fill="white"/>
</clipPath>
</defs>
</svg>
