<svg width="16" height="16" viewBox="0 0 16 16" fill="none" xmlns="http://www.w3.org/2000/svg">
<path d="M4.59093 12H11.0221C11.4335 12 11.6392 12 11.8237 11.9741C12.5739 11.8685 13.2233 11.4504 13.5726 10.8478C13.6585 10.6996 13.7235 10.5253 13.8536 10.1766L14.5999 8.17623C14.8769 7.43359 14.2583 6.66667 13.3821 6.66667C12.8419 6.66667 12.3595 6.96887 12.1754 7.42263L11.5082 9.06667C11.3789 9.38535 11.3142 9.5447 11.1914 9.65567C11.1243 9.71627 11.0456 9.76559 10.9589 9.80129C10.8003 9.86667 10.6106 9.86667 10.2312 9.86667H5.57842C5.38295 9.86667 5.28522 9.86667 5.19815 9.84899C4.99482 9.80771 4.81774 9.69678 4.705 9.54006C4.65672 9.47295 4.62341 9.39086 4.55678 9.22667L3.8247 7.42263C3.64057 6.96887 3.15817 6.66667 2.61797 6.66667C1.74183 6.66667 1.12317 7.43359 1.40023 8.17623L2.2689 10.5047C2.28196 10.5397 2.28849 10.5572 2.29469 10.573C2.62583 11.4162 3.51015 11.9857 4.51025 11.9997C4.52897 12 4.54963 12 4.59093 12Z" stroke="#F1F1F1"/>
<path opacity="0.5" d="M4 8.00001V5.71429C4 4.27763 4 3.5593 4.46863 3.11299C4.93726 2.66667 5.69151 2.66667 7.2 2.66667H8.8C10.3085 2.66667 11.0627 2.66667 11.5314 3.11299C12 3.5593 12 4.27763 12 5.71429V8.00001" stroke="#F1F1F1"/>
<path opacity="0.5" d="M12 13.3333V12M4 13.3333V12.4444" stroke="#F1F1F1" stroke-linecap="round"/>
</svg>
