<svg width="16" height="16" viewBox="0 0 16 16" fill="none" xmlns="http://www.w3.org/2000/svg">
<g clip-path="url(#clip0_103_9500)">
<path d="M11.665 12.3234L13.7521 6.06248C14.5843 3.56582 15.0005 2.31749 14.3415 1.65854C13.6825 0.99959 12.4341 1.4157 9.93737 2.24792L3.71655 4.32145C2.32867 4.78406 1.63473 5.01536 1.42409 5.52424C1.37459 5.64384 1.34466 5.77063 1.33545 5.89975C1.29626 6.4491 1.81349 6.96631 2.84796 8.00074L3.03638 8.18915C3.20618 8.35894 3.29108 8.44384 3.35526 8.53834C3.48183 8.72473 3.55368 8.94283 3.56266 9.16795C3.56721 9.2821 3.54939 9.40083 3.51375 9.63829C3.38329 10.5075 3.31806 10.9421 3.39491 11.2765C3.54808 11.9431 4.06403 12.4663 4.72842 12.6289C5.06174 12.7104 5.49722 12.6513 6.36817 12.5331L6.4158 12.5266C6.66131 12.4933 6.78408 12.4767 6.90195 12.4838C7.11592 12.4967 7.32259 12.5664 7.50069 12.6857C7.59879 12.7514 7.68639 12.839 7.86159 13.0142L8.0291 13.1817C9.03595 14.1885 9.53938 14.6919 10.0734 14.6657C10.2207 14.6585 10.3653 14.6243 10.5002 14.5649C10.9896 14.3496 11.2147 13.6742 11.665 12.3234Z" stroke="#EEE7E7" stroke-width="1.5"/>
<path opacity="0.5" d="M4 12L14 2" stroke="#EEE7E7" stroke-width="1.5" stroke-linecap="round"/>
</g>
<defs>
<clipPath id="clip0_103_9500">
<rect width="16" height="16" fill="white"/>
</clipPath>
</defs>
</svg>
